<svg width="20" height="20" viewBox="0 0 20 20" fill="none" xmlns="http://www.w3.org/2000/svg">
<path d="M19.6544 9.96249C19.6613 9.91124 19.6869 9.86436 19.6875 9.81186C19.6875 9.80936 19.6862 9.80749 19.6862 9.80499C19.6862 9.80249 19.6875 9.80061 19.6875 9.79811C19.6875 9.43499 19.5356 9.10936 19.2938 8.87436C19.29 8.87061 19.2887 8.86499 19.285 8.86124L12.9075 2.80686C12.3906 2.31686 11.5725 2.33624 11.0819 2.85436C10.5906 3.37124 10.6119 4.18936 11.1294 4.67999L15.16 8.50624H1.60437C0.89125 8.50624 0.3125 9.08436 0.3125 9.79811C0.3125 10.5119 0.890625 11.09 1.60437 11.09H15.055L10.4231 15.3012C9.895 15.7806 9.85687 16.5981 10.3369 17.1256C10.5919 17.4056 10.9419 17.5481 11.2931 17.5481C11.6025 17.5481 11.9137 17.4369 12.1619 17.2119L19.2663 10.7537C19.2738 10.7469 19.2763 10.7369 19.2838 10.73C19.3719 10.6462 19.435 10.5419 19.4969 10.4362C19.5212 10.3937 19.5588 10.36 19.5788 10.315C19.6244 10.2062 19.6381 10.0844 19.6544 9.96249Z" fill="#003D86"/>
</svg>
