<svg width="20" height="20" viewBox="0 0 20 20" fill="none" xmlns="http://www.w3.org/2000/svg">
<path d="M10.0007 7.7925C10.5019 7.7925 10.9088 7.38563 10.9088 6.88438V1.22062C10.9088 0.719375 10.5019 0.3125 10.0007 0.3125C9.4994 0.3125 9.09253 0.719375 9.09253 1.22062V6.88438C9.09253 7.38625 9.4994 7.7925 10.0007 7.7925Z" fill="#003D86"/>
<path d="M13.85 2.89313C13.3981 2.67375 12.8568 2.86437 12.6369 3.31438C12.4181 3.76625 12.6062 4.30875 13.0581 4.5275C15.4656 5.69438 17.0219 8.17625 17.0219 10.85C17.0219 14.7219 13.8725 17.8713 10.0012 17.8713C6.12998 17.8713 2.97873 14.7213 2.97873 10.8494C2.97873 8.1325 4.49935 5.70875 6.94623 4.525C7.3981 4.30625 7.58748 3.76312 7.3681 3.31187C7.1506 2.86125 6.60623 2.67313 6.15623 2.89C3.12185 4.3575 1.16248 7.48188 1.16248 10.85C1.16248 15.7231 5.12748 19.6881 10.0006 19.6881C14.8737 19.6881 18.8381 15.7238 18.8381 10.85C18.8381 7.48438 16.8794 4.36125 13.85 2.89313Z" fill="#003D86"/>
</svg>
