<svg width="20" height="20" viewBox="0 0 20 20" fill="none" xmlns="http://www.w3.org/2000/svg">
<path d="M19.2488 7.45187L10.4875 2.36062C10.215 2.20312 9.88001 2.20187 9.60564 2.35875L0.753763 7.45C0.332513 7.6925 0.186888 8.23062 0.430013 8.65312C0.593138 8.93625 0.889388 9.09437 1.19439 9.09437C1.34376 9.09437 1.49439 9.05625 1.63314 8.97687L2.61001 8.415V16.8775C2.61001 17.3637 3.00439 17.7587 3.49126 17.7587H16.51C16.9963 17.7587 17.3913 17.3644 17.3913 16.8775V8.40875L18.365 8.97437C18.7863 9.22 19.3256 9.075 19.5688 8.655C19.8125 8.235 19.6694 7.69625 19.2488 7.45187ZM9.20626 15.9962H7.45626V11.485H9.20564V15.9962H9.20626ZM15.6281 15.9962H10.9681V10.6037C10.9681 10.1175 10.5738 9.7225 10.0869 9.7225H6.57501C6.08876 9.7225 5.69376 10.1169 5.69376 10.6037V15.9962H4.37189V7.40187L10.0431 4.14L15.6281 7.38562V15.9962Z" fill="#003D86"/>
</svg>
