<svg width="20" height="20" viewBox="0 0 20 20" fill="none" xmlns="http://www.w3.org/2000/svg">
<path d="M6.44378 2.91876L12.1813 7.29376L16.1313 5.81251C16.272 5.75852 16.4219 5.73301 16.5726 5.73747C16.7232 5.74192 16.8714 5.77626 17.0086 5.83848C17.1458 5.90069 17.2693 5.98956 17.3719 6.0999C17.4745 6.21025 17.5542 6.33988 17.6063 6.48126C17.6604 6.62237 17.686 6.77279 17.6816 6.92385C17.6772 7.0749 17.6429 7.22359 17.5808 7.36133C17.5186 7.49906 17.4297 7.6231 17.3193 7.72629C17.2089 7.82948 17.0791 7.90977 16.9375 7.96251L12.9875 9.44376L11.5563 16.5438L10.1188 17.0813L9.76253 10.675L5.81878 12.15L5.28128 13.9938L4.20003 14.375L3.97503 11.5938L2.31878 9.37501L3.39378 8.96876L5.00003 10L8.95003 8.51876L5.00003 3.45626L6.43753 2.91876H6.44378ZM6.43753 1.07501C6.22383 1.07744 6.01224 1.11764 5.81253 1.19376L4.37503 1.73126C4.10379 1.83171 3.85998 1.99456 3.66331 2.20667C3.46664 2.41877 3.32264 2.67417 3.24293 2.95222C3.16323 3.23027 3.15006 3.52317 3.2045 3.80725C3.25893 4.09133 3.37944 4.35862 3.55628 4.58751L5.96253 7.67501L5.22503 7.95626L4.37503 7.41876C4.0786 7.22876 3.73338 7.12888 3.38128 7.13126C3.16807 7.13295 2.95671 7.171 2.75628 7.24376L1.68128 7.65001C1.41867 7.75511 1.18324 7.91825 0.992628 8.12724C0.802011 8.33622 0.661147 8.58562 0.580586 8.85677C0.500024 9.12791 0.481853 9.41377 0.527434 9.69293C0.573014 9.97209 0.681164 10.2373 0.843784 10.4688L2.18753 12.2875L2.36878 14.5438C2.41027 15.0038 2.62009 15.4323 2.95803 15.7472C3.29596 16.062 3.73823 16.2411 4.20003 16.25C4.41345 16.2448 4.62458 16.2047 4.82503 16.1313L5.90003 15.725C6.16793 15.6256 6.40873 15.4646 6.60304 15.2551C6.79736 15.0456 6.93976 14.7934 7.01878 14.5188L7.30003 13.5625L8.03753 13.2875L8.25628 17.2C8.27515 17.4874 8.35994 17.7665 8.5041 18.0158C8.64825 18.2651 8.84789 18.4778 9.08753 18.6375C9.38663 18.8333 9.73633 18.9375 10.0938 18.9375C10.3075 18.9351 10.5191 18.8949 10.7188 18.8188L12.15 18.2813C12.4413 18.1697 12.7002 17.9873 12.9032 17.7505C13.1062 17.5136 13.2469 17.2299 13.3125 16.925L14.5625 10.8375L17.55 9.71876C18.2045 9.47112 18.7516 9.00203 19.0962 8.39299C19.4408 7.78395 19.5611 7.07344 19.4363 6.38489C19.3116 5.69633 18.9495 5.07325 18.4131 4.62387C17.8767 4.17449 17.1998 3.92722 16.5 3.92501C16.1413 3.92696 15.7858 3.99256 15.45 4.11876L12.5 5.22501L7.56878 1.47501C7.24826 1.22777 6.85484 1.0937 6.45003 1.09376L6.43753 1.07501Z" fill="#003D86"/>
</svg>
